<svg width="29" height="30" viewBox="0 0 29 30" fill="none" xmlns="http://www.w3.org/2000/svg">
<path d="M15.9334 8.02002C16.6517 6.48112 18.8399 6.48112 19.5581 8.02002L20.9384 10.9776C21.1371 11.4032 21.4793 11.7454 21.9049 11.9441L24.8625 13.3244C26.4014 14.0426 26.4014 16.2309 24.8625 16.9491L21.9049 18.3294C21.4793 18.528 21.1371 18.8702 20.9384 19.2959L19.5581 22.2534C18.8399 23.7923 16.6517 23.7923 15.9334 22.2534L14.5532 19.2959C14.3545 18.8702 14.0123 18.528 13.5866 18.3294L10.6291 16.9491C9.09019 16.2309 9.09018 14.0426 10.6291 13.3244L13.5866 11.9441C14.0123 11.7454 14.3545 11.4032 14.5532 10.9776L15.9334 8.02002Z" fill="#6DE8CA"/>
<path d="M5.157 20.0784C5.5161 19.3089 6.61024 19.3089 6.96934 20.0784L7.7176 21.6817C7.81693 21.8945 7.98801 22.0656 8.20086 22.1649L9.80414 22.9132C10.5736 23.2723 10.5736 24.3664 9.80414 24.7255L8.20086 25.4738C7.98801 25.5731 7.81693 25.7442 7.7176 25.957L6.96934 27.5603C6.61024 28.3298 5.5161 28.3298 5.157 27.5603L4.40875 25.957C4.30941 25.7442 4.13833 25.5731 3.92549 25.4738L2.3222 24.7255C1.55275 24.3664 1.55275 23.2723 2.3222 22.9132L3.92549 22.1649C4.13833 22.0656 4.30941 21.8945 4.40875 21.6817L5.157 20.0784Z" fill="#1A848E"/>
<path d="M5.157 2.40893C5.5161 1.63948 6.61024 1.63948 6.96934 2.40894L7.7176 4.01222C7.81693 4.22506 7.98801 4.39614 8.20086 4.49548L9.80414 5.24373C10.5736 5.60284 10.5736 6.69697 9.80414 7.05607L8.20086 7.80433C7.98801 7.90366 7.81693 8.07475 7.7176 8.28759L6.96934 9.89087C6.61024 10.6603 5.5161 10.6603 5.157 9.89087L4.40875 8.28759C4.30941 8.07475 4.13833 7.90366 3.92549 7.80433L2.3222 7.05607C1.55275 6.69697 1.55275 5.60284 2.3222 5.24373L3.92549 4.49548C4.13833 4.39614 4.30941 4.22506 4.40875 4.01222L5.157 2.40893Z" fill="white"/>
</svg>
