<svg width="16" height="22" viewBox="0 0 16 22" fill="none" xmlns="http://www.w3.org/2000/svg">
<rect y="9.79755" width="16" height="12.2024" rx="3" fill="#F0F0F0"/>
<path d="M8.81332 14.7425C8.98103 14.5026 9.06489 14.2285 9.06489 13.92C9.06489 13.6116 8.95168 13.3503 8.72526 13.1361C8.49884 12.9219 8.21792 12.8148 7.88248 12.8148C7.5325 12.8148 7.21585 12.902 6.93255 13.0765C6.57186 13.2985 6.07331 13.3342 5.79631 13.0138V13.0138C5.60777 12.7957 5.57534 12.4741 5.77056 12.262C5.9676 12.0478 6.20616 11.8637 6.48623 11.7096C6.93068 11.4612 7.42545 11.3369 7.97053 11.3369C8.78396 11.3369 9.42549 11.5554 9.8951 11.9924C10.3731 12.4207 10.6121 12.9562 10.6121 13.5988C10.6121 13.9929 10.5492 14.3484 10.4234 14.6654C10.2976 14.9824 10.1425 15.2352 9.95799 15.4236C9.7735 15.6036 9.57643 15.7878 9.36678 15.9762C9.16552 16.1562 8.97684 16.3189 8.80074 16.4646C8.63302 16.6017 8.50304 16.7773 8.41079 16.9915V16.9915C8.26134 17.3246 8.00487 17.6758 7.63976 17.6794L7.57422 17.68C7.25254 17.6831 6.96387 17.4492 6.97854 17.1278C6.98723 16.9373 7.0202 16.7634 7.07743 16.606C7.19484 16.2975 7.36255 16.0491 7.58059 15.8606C7.79862 15.6721 8.01665 15.4965 8.23469 15.3337C8.46111 15.1709 8.65398 14.9738 8.81332 14.7425ZM6.7378 19.5103C6.7378 19.2704 6.83005 19.052 7.01454 18.8549C7.19903 18.6579 7.43803 18.5593 7.73153 18.5593C7.99988 18.5593 8.22211 18.6579 8.39821 18.8549C8.57432 19.052 8.66237 19.2704 8.66237 19.5103C8.66237 19.7845 8.57432 20.0244 8.39821 20.23C8.22211 20.4356 7.99988 20.5384 7.73153 20.5384C7.43803 20.5384 7.19903 20.4356 7.01454 20.23C6.83005 20.0244 6.7378 19.7845 6.7378 19.5103Z" fill="#1A848E"/>
<ellipse cx="8.01727" cy="5.09109" rx="5" ry="5.08774" fill="#6DE8CA"/>
</svg>
