<svg width="160" height="39" viewBox="0 0 160 39" fill="none" xmlns="http://www.w3.org/2000/svg">
<path d="M3.61375 29.9879V5.48793H17.7888V9.51293H7.91875V15.6029H16.7388V19.6279H7.91875V25.9629H18.1388V29.9879H3.61375ZM28.0506 29.9879H23.7456V5.48793C24.1656 5.48793 25.2739 5.47626 27.0706 5.45293C28.8906 5.42959 30.1039 5.41793 30.7106 5.41793C32.4373 5.41793 33.9306 5.63959 35.1906 6.08293C36.4739 6.50293 37.4656 7.09793 38.1656 7.86793C38.8656 8.61459 39.3789 9.44293 39.7056 10.3529C40.0323 11.2396 40.1956 12.2196 40.1956 13.2929C40.1956 15.5096 39.4023 17.3879 37.8156 18.9279C36.2289 20.4679 34.0356 21.2379 31.2356 21.2379C29.8123 21.2379 28.7506 21.2029 28.0506 21.1329V29.9879ZM31.1306 9.44293C30.6173 9.44293 29.5906 9.46626 28.0506 9.51293V17.0379C29.1706 17.1546 30.1856 17.2129 31.0956 17.2129C32.4489 17.2129 33.5456 16.8863 34.3856 16.2329C35.2256 15.5563 35.6456 14.5646 35.6456 13.2579C35.6456 10.7146 34.1406 9.44293 31.1306 9.44293Z" fill="white"/>
<path d="M46.9474 5.98458H43V9.7715H46.9474V5.98458Z" fill="#6DE8CA"/>
<path d="M52.2102 11.0338H48.2628V14.8208H52.2102V11.0338Z" fill="#6DE8CA"/>
<path d="M52.2102 21.1323H48.2628V24.9192H52.2102V21.1323Z" fill="#6DE8CA"/>
<path d="M46.9474 26.1815H43V29.9685H46.9474V26.1815Z" fill="#6DE8CA"/>
<path d="M68 26.1815H64.0526V29.9685H68V26.1815Z" fill="#6DE8CA"/>
<path d="M62.737 21.1323H58.7896V24.9192H62.737V21.1323Z" fill="#6DE8CA"/>
<path d="M57.4737 16.0831H53.5262V19.87H57.4737V16.0831Z" fill="#6DE8CA"/>
<path d="M62.737 11.0338H58.7896V14.8208H62.737V11.0338Z" fill="#6DE8CA"/>
<path d="M68 5.98458H64.0526V9.7715H68V5.98458Z" fill="#6DE8CA"/>
<path d="M153.916 26.2168V29.8294H152.955V20.711C153.34 20.711 153.736 20.7052 154.144 20.6936C154.563 20.682 154.971 20.6762 155.367 20.6762C157.768 20.6762 158.969 21.591 158.969 23.4205C158.969 24.0689 158.765 24.6247 158.357 25.0878C157.949 25.551 157.419 25.8521 156.766 25.991L160 29.8294H158.776L155.769 26.2168H153.916ZM155.402 21.5794C155.064 21.5794 154.569 21.591 153.916 21.6141V25.3136H155.577C156.218 25.3136 156.772 25.1399 157.238 24.7926C157.716 24.422 157.955 23.9647 157.955 23.4205C157.955 22.1931 157.104 21.5794 155.402 21.5794Z" fill="#7A7A7A"/>
<path d="M140.781 25.279C140.781 23.9474 141.247 22.8358 142.18 21.9442C143.1 21.041 144.277 20.5895 145.711 20.5895C147.133 20.5895 148.304 21.0295 149.225 21.9095C150.169 22.8011 150.641 23.9242 150.641 25.279C150.641 26.6221 150.169 27.7395 149.225 28.6311C148.292 29.5227 147.121 29.9685 145.711 29.9685C144.277 29.9685 143.1 29.5285 142.18 28.6485C141.247 27.7569 140.781 26.6337 140.781 25.279ZM141.795 25.279C141.795 26.3558 142.168 27.259 142.914 27.9885C143.671 28.7064 144.604 29.0653 145.711 29.0653C146.865 29.0653 147.803 28.7064 148.525 27.9885C149.26 27.2706 149.627 26.3674 149.627 25.279C149.627 24.1905 149.248 23.2874 148.49 22.5695C147.733 21.8516 146.806 21.4926 145.711 21.4926C144.604 21.4926 143.671 21.8516 142.914 22.5695C142.168 23.2758 141.795 24.179 141.795 25.279Z" fill="#7A7A7A"/>
<path d="M135.781 21.6141H132.18V20.7109H140.361V21.6141H136.742V29.8294H135.781V21.6141Z" fill="#7A7A7A"/>
<path d="M124.336 29.8293H123.357L127.675 20.6414H128.479L132.797 29.8293H131.766L130.42 26.9288H125.682L124.336 29.8293ZM130 26.043L128.042 21.8224L126.084 26.043H130Z" fill="#7A7A7A"/>
<path d="M116.785 26.2168V29.8294H115.824V20.711C116.208 20.711 116.605 20.7052 117.013 20.6936C117.432 20.682 117.84 20.6762 118.236 20.6762C120.637 20.6762 121.837 21.591 121.837 23.4205C121.837 24.0689 121.633 24.6247 121.226 25.0878C120.818 25.551 120.287 25.8521 119.635 25.991L122.869 29.8294H121.645L118.638 26.2168H116.785ZM118.271 21.5794C117.933 21.5794 117.438 21.591 116.785 21.6141V25.3136H118.446C119.087 25.3136 119.641 25.1399 120.107 24.7926C120.585 24.422 120.824 23.9647 120.824 23.4205C120.824 22.1931 119.973 21.5794 118.271 21.5794Z" fill="#7A7A7A"/>
<path d="M113.211 29.8294H107.407V20.7109H113.071V21.6141H108.369V24.7578H112.652V25.661H108.369V28.9263H113.211V29.8294Z" fill="#7A7A7A"/>
<path d="M104.289 20.7109V29.8294H103.52L96.9466 22.2915V29.8294H96.0376V20.7109H96.8068L103.38 28.2663V20.7109H104.289Z" fill="#7A7A7A"/>
<path d="M93.4251 29.8294H87.6212V20.7109H93.2852V21.6141H88.5827V24.7578H92.8657V25.661H88.5827V28.9263H93.4251V29.8294Z" fill="#7A7A7A"/>
<path d="M84.2688 26.1474H81.4368V25.2963H85.1778V28.7179C84.7466 29.1116 84.1813 29.4185 83.4821 29.6385C82.7828 29.8585 82.1069 29.9685 81.4542 29.9685C79.9275 29.9685 78.7155 29.5458 77.8181 28.7006C76.909 27.8553 76.4545 26.7148 76.4545 25.279C76.4545 23.9474 76.9032 22.8358 77.8006 21.9442C78.6863 21.041 79.8576 20.5895 81.3144 20.5895C82.5614 20.5895 83.5986 20.8789 84.4261 21.4579L83.9891 22.2221C83.3364 21.7358 82.4856 21.4926 81.4368 21.4926C80.248 21.4926 79.2924 21.8458 78.5698 22.5521C77.8356 23.2469 77.4685 24.1558 77.4685 25.279C77.4685 26.4253 77.8356 27.3458 78.5698 28.0406C79.3273 28.7237 80.2946 29.0653 81.4717 29.0653C82.6488 29.0653 83.5812 28.7758 84.2688 28.1969V26.1474Z" fill="#7A7A7A"/>
<path d="M138.94 6.10614H140.199L135.601 10.3962L140.391 15.2246H139.08L134.412 10.4657L138.94 6.10614ZM134.028 15.2246H133.066V6.10614H134.028V15.2246Z" fill="#7A7A7A"/>
<path d="M130.616 13.6267L131.001 14.3562C130.663 14.6689 130.208 14.9178 129.637 15.1031C129.078 15.2768 128.495 15.3636 127.889 15.3636C126.374 15.3636 125.168 14.941 124.27 14.0957C123.361 13.2504 122.907 12.1099 122.907 10.6741C122.907 9.33092 123.344 8.21933 124.218 7.33932C125.104 6.43616 126.292 5.98458 127.784 5.98458C128.985 5.98458 129.993 6.27405 130.808 6.853L130.354 7.56511C129.643 7.11353 128.786 6.88774 127.784 6.88774C126.63 6.88774 125.698 7.2409 124.987 7.94722C124.276 8.65354 123.921 9.5625 123.921 10.6741C123.921 11.8088 124.288 12.7236 125.022 13.4183C125.768 14.1131 126.747 14.4604 127.959 14.4604C128.985 14.4604 129.87 14.1825 130.616 13.6267Z" fill="#7A7A7A"/>
<path d="M111.537 10.6741C111.537 9.3425 112.003 8.23091 112.936 7.33932C113.856 6.43616 115.033 5.98458 116.467 5.98458C117.889 5.98458 119.06 6.42458 119.981 7.30458C120.925 8.19617 121.397 9.31934 121.397 10.6741C121.397 12.0173 120.925 13.1346 119.981 14.0262C119.048 14.9178 117.877 15.3636 116.467 15.3636C115.033 15.3636 113.856 14.9236 112.936 14.0436C112.003 13.152 111.537 12.0288 111.537 10.6741ZM112.551 10.6741C112.551 11.7509 112.924 12.6541 113.67 13.3836C114.427 14.1015 115.36 14.4604 116.467 14.4604C117.621 14.4604 118.559 14.1015 119.281 13.3836C120.016 12.6657 120.383 11.7625 120.383 10.6741C120.383 9.58566 120.004 8.68249 119.246 7.96459C118.489 7.24669 117.562 6.88774 116.467 6.88774C115.36 6.88774 114.427 7.24669 113.67 7.96459C112.924 8.67091 112.551 9.57408 112.551 10.6741Z" fill="#7A7A7A"/>
<path d="M106.537 7.00931H102.936V6.10614H111.117V7.00931H107.498V15.2246H106.537V7.00931Z" fill="#7A7A7A"/>
<path d="M101.019 12.8625C101.019 12.1099 100.372 11.5309 99.0782 11.1257C97.8778 10.7667 97.0678 10.4541 96.6482 10.1878C95.914 9.71302 95.5411 9.09934 95.5294 8.3467C95.5294 7.6288 95.8091 7.05564 96.3685 6.62721C96.9396 6.19879 97.7438 5.98458 98.781 5.98458C99.3287 5.98458 99.894 6.08879 100.477 6.29721C101.059 6.48247 101.496 6.73142 101.788 7.04406L101.333 7.75617C101.03 7.48985 100.634 7.28143 100.145 7.1309C99.6667 6.96879 99.1947 6.88774 98.7285 6.88774C98.0642 6.88774 97.534 7.02669 97.1377 7.30458C96.7415 7.5709 96.5434 7.92985 96.5434 8.38144C96.5434 9.07618 97.1902 9.62618 98.4838 10.0314C98.9034 10.1472 99.2297 10.2457 99.4628 10.3267C99.7075 10.3962 100.016 10.5178 100.389 10.6915C100.774 10.8536 101.065 11.0272 101.263 11.2125C101.473 11.3862 101.66 11.6236 101.823 11.9246C101.986 12.2257 102.062 12.5557 102.05 12.9146C102.05 13.6441 101.735 14.2346 101.106 14.6862C100.5 15.1378 99.7308 15.3636 98.7985 15.3636C98.0409 15.3636 97.3417 15.242 96.7007 14.9989C96.0597 14.7557 95.5702 14.4315 95.2322 14.0262L95.7916 13.3662C96.5375 14.0957 97.5573 14.4604 98.8509 14.4604C99.4569 14.4604 99.9697 14.3157 100.389 14.0262C100.809 13.7367 101.019 13.3488 101.019 12.8625Z" fill="#7A7A7A"/>
<path d="M88.5555 15.2246H87.5941V6.10614H88.5555V15.2246Z" fill="#7A7A7A"/>
<path d="M76.979 15.2246H76L80.3179 6.03664H81.1221L85.44 15.2246H84.4086L83.0625 12.3241H78.325L76.979 15.2246ZM82.643 11.4383L80.685 7.2177L78.7271 11.4383H82.643Z" fill="#7A7A7A"/>
</svg>
