<svg width="17" height="24" viewBox="0 0 17 24" fill="none" xmlns="http://www.w3.org/2000/svg">
<path d="M3.15905 20.1988C3.17732 20.9084 3.97429 21.3158 4.56018 20.9151L6.44394 19.6268C7.00486 19.2432 6.9511 18.3992 6.34604 18.0899L4.40352 17.0968C3.79846 16.7874 3.0828 17.2381 3.1003 17.9174L3.15905 20.1988Z" fill="white"/>
<path d="M13.6716 1.36584C14.7151 1.89963 15.102 3.22959 14.5359 4.33693L7.35664 18.3796C7.39148 18.0329 7.22739 17.671 6.87457 17.4905L4.58078 16.3178C4.22746 16.1371 3.83714 16.2162 3.5764 16.4481L10.7561 2.40452C11.3224 1.29706 12.6278 0.832189 13.6716 1.36584Z" fill="white"/>
</svg>
